# Blender v2.78 (sub 0) OBJ File: ''
# www.blender.org
o Cube_Cube.001
v -1.000000 -1.000000 1.000000
v -1.000000 1.000000 1.000000
v -1.000000 -1.000000 -1.000000
v -1.000000 1.000000 -1.000000
v 1.000000 -1.000000 1.000000
v 1.000000 1.000000 1.000000
v 1.000000 -1.000000 -1.000000
v 1.000000 1.000000 -1.000000
vt 0.0000 2.6634
vt 2.6634 0.0000
vt 0.0000 0.0000
vt 0.0000 2.6634
vt 2.6634 0.0000
vt 0.0000 0.0000
vt 0.0000 2.6634
vt -2.6634 0.0000
vt 0.0000 0.0000
vt 0.0000 2.6634
vt -2.6634 0.0000
vt 0.0000 0.0000
vt 0.0000 -2.6634
vt -2.6634 0.0000
vt 0.0000 -2.6634
vt 0.0000 0.0000
vt 2.6634 2.6634
vt 2.6634 2.6634
vt -2.6634 2.6634
vt -2.6634 2.6634
vt 2.6634 -2.6634
vt -2.6634 -2.6634
vn -1.0000 0.0000 0.0000
vn 0.0000 0.0000 -1.0000
vn 1.0000 0.0000 0.0000
vn 0.0000 0.0000 1.0000
vn 0.0000 -1.0000 0.0000
vn 0.0000 1.0000 0.0000
s off
f 2/1/1 3/2/1 1/3/1
f 4/4/2 7/5/2 3/6/2
f 8/7/3 5/8/3 7/9/3
f 6/10/4 1/11/4 5/12/4
f 7/5/5 1/13/5 3/6/5
f 4/14/6 6/15/6 8/16/6
f 2/1/1 4/17/1 3/2/1
f 4/4/2 8/18/2 7/5/2
f 8/7/3 6/19/3 5/8/3
f 6/10/4 2/20/4 1/11/4
f 7/5/5 5/21/5 1/13/5
f 4/14/6 2/22/6 6/15/6
