# Blender v2.78 (sub 0) OBJ File: ''
# www.blender.org
o Plane
v -12.466548 0.000000 12.466548
v 12.466548 0.000000 12.466548
v -12.466548 0.000000 -12.466548
v 12.466548 0.000000 -12.466548
v -12.466548 0.000000 -10.548983
v -12.466548 0.000000 -5.529173
v 12.466548 0.000000 -5.529173
v 12.466548 0.000000 -10.548983
v 10.175680 0.000000 12.466548
v 10.175680 0.000000 -12.466548
v 10.175680 0.000000 -5.529173
v 10.175680 0.000000 -10.548983
v 2.664817 0.000000 -12.466548
v 2.664817 0.000000 -5.529173
v 2.664817 0.000000 -10.548983
v 2.664816 0.000000 12.466548
v -6.125798 0.000000 -12.466548
v -6.125798 0.000000 -5.529173
v -6.125798 0.000000 -10.548983
v -6.125798 0.000000 12.466548
v 10.175680 1.582476 -5.529173
v 10.175680 1.582476 -10.548983
v 2.664817 1.582476 -5.529173
v 2.664817 1.582476 -10.548983
vt 2.2035 1.9131
vt 1.7511 2.2917
vt 1.7511 1.9131
vt 2.2035 -2.6314
vt 1.7511 0.9219
vt 1.7511 -2.6314
vt 2.2035 0.9219
vt 0.8395 3.2847
vt 0.5270 2.2935
vt 0.8395 2.2935
vt 0.2681 0.9219
vt 0.2681 -2.6314
vt 0.2681 2.2917
vt 0.2681 1.9131
vt -1.4677 2.2917
vt -1.4677 1.9131
vt -1.4677 0.9219
vt -1.4677 -2.6314
vt 3.7197 3.2864
vt 2.2366 3.5989
vt 2.2366 3.2864
vt -2.7197 1.9131
vt -2.7197 0.9219
vt -2.7197 -2.6314
vt -2.7197 2.2917
vt -0.9560 3.2847
vt -0.9560 2.2935
vt -2.7197 3.2847
vt -2.7197 2.2935
vt 0.5009 3.2864
vt -0.9839 3.5989
vt 0.4991 3.2864
vt 0.4991 3.5989
vt -2.7197 3.5989
vt -0.9839 3.2864
vt 2.2035 2.2917
vt 0.5270 3.2847
vt 3.7197 3.5989
vn 0.0000 1.0000 0.0000
vn 1.0000 0.0000 0.0000
vn 0.0000 0.0000 1.0000
vn -0.1772 0.9842 0.0000
vn 0.0000 0.0000 -1.0000
s off
f 8/1/1 10/2/1 12/3/1
f 2/4/1 11/5/1 9/6/1
f 7/7/1 12/3/1 11/5/1
f 12/8/2 21/9/2 11/10/2
f 9/6/1 14/11/1 16/12/1
f 12/3/1 13/13/1 15/14/1
f 15/14/1 17/15/1 19/16/1
f 16/12/1 18/17/1 20/18/1
f 11/19/3 23/20/3 14/21/3
f 18/17/1 5/22/1 6/23/1
f 20/18/1 6/23/1 1/24/1
f 19/16/1 3/25/1 5/22/1
f 21/9/1 24/26/1 23/27/1
f 23/27/4 19/28/4 18/29/4
f 18/30/3 14/21/3 23/20/3
f 15/31/5 22/32/5 12/33/5
f 15/31/5 19/34/5 24/35/5
f 8/1/1 4/36/1 10/2/1
f 2/4/1 7/7/1 11/5/1
f 7/7/1 8/1/1 12/3/1
f 12/8/2 22/37/2 21/9/2
f 9/6/1 11/5/1 14/11/1
f 12/3/1 10/2/1 13/13/1
f 15/14/1 13/13/1 17/15/1
f 16/12/1 14/11/1 18/17/1
f 11/19/3 21/38/3 23/20/3
f 18/17/1 19/16/1 5/22/1
f 20/18/1 18/17/1 6/23/1
f 19/16/1 17/15/1 3/25/1
f 21/9/1 22/37/1 24/26/1
f 23/27/4 24/26/4 19/28/4
f 15/31/5 24/35/5 22/32/5
