# Blender v2.78 (sub 0) OBJ File: ''
# www.blender.org
mtllib sphere2.mtl
o Icosphere
v 0.000000 -1.000000 0.000000
v 0.723607 -0.447220 0.525725
v -0.276388 -0.447220 0.850649
v -0.894426 -0.447216 0.000000
v -0.276388 -0.447220 -0.850649
v 0.723607 -0.447220 -0.525725
v 0.276388 0.447220 0.850649
v -0.723607 0.447220 0.525725
v -0.723607 0.447220 -0.525725
v 0.276388 0.447220 -0.850649
v 0.894426 0.447216 0.000000
v 0.000000 1.000000 0.000000
v -0.232822 -0.657519 0.716563
v -0.162456 -0.850654 0.499995
v -0.077607 -0.967950 0.238853
v 0.203181 -0.967950 0.147618
v 0.425323 -0.850654 0.309011
v 0.609547 -0.657519 0.442856
v 0.531941 -0.502302 0.681712
v 0.262869 -0.525738 0.809012
v -0.029639 -0.502302 0.864184
v 0.812729 -0.502301 -0.295238
v 0.850648 -0.525736 0.000000
v 0.812729 -0.502301 0.295238
v 0.203181 -0.967950 -0.147618
v 0.425323 -0.850654 -0.309011
v 0.609547 -0.657519 -0.442856
v -0.753442 -0.657515 0.000000
v -0.525730 -0.850652 0.000000
v -0.251147 -0.967949 0.000000
v -0.483971 -0.502302 0.716565
v -0.688189 -0.525736 0.499997
v -0.831051 -0.502299 0.238853
v -0.232822 -0.657519 -0.716563
v -0.162456 -0.850654 -0.499995
v -0.077607 -0.967950 -0.238853
v -0.831051 -0.502299 -0.238853
v -0.688189 -0.525736 -0.499997
v -0.483971 -0.502302 -0.716565
v -0.029639 -0.502302 -0.864184
v 0.262869 -0.525738 -0.809012
v 0.531941 -0.502302 -0.681712
v 0.956626 0.251149 0.147618
v 0.951058 -0.000000 0.309013
v 0.860698 -0.251151 0.442858
v 0.860698 -0.251151 -0.442858
v 0.951058 0.000000 -0.309013
v 0.956626 0.251149 -0.147618
v 0.155215 0.251152 0.955422
v 0.000000 -0.000000 1.000000
v -0.155215 -0.251152 0.955422
v 0.687159 -0.251152 0.681715
v 0.587786 0.000000 0.809017
v 0.436007 0.251152 0.864188
v -0.860698 0.251151 0.442858
v -0.951058 -0.000000 0.309013
v -0.956626 -0.251149 0.147618
v -0.436007 -0.251152 0.864188
v -0.587786 0.000000 0.809017
v -0.687159 0.251152 0.681715
v -0.687159 0.251152 -0.681715
v -0.587786 -0.000000 -0.809017
v -0.436007 -0.251152 -0.864188
v -0.956626 -0.251149 -0.147618
v -0.951058 0.000000 -0.309013
v -0.860698 0.251151 -0.442858
v 0.436007 0.251152 -0.864188
v 0.587786 -0.000000 -0.809017
v 0.687159 -0.251152 -0.681715
v -0.155215 -0.251152 -0.955422
v 0.000000 0.000000 -1.000000
v 0.155215 0.251152 -0.955422
v 0.831051 0.502299 0.238853
v 0.688189 0.525736 0.499997
v 0.483971 0.502302 0.716565
v 0.029639 0.502302 0.864184
v -0.262869 0.525738 0.809012
v -0.531941 0.502302 0.681712
v -0.812729 0.502301 0.295238
v -0.850648 0.525736 0.000000
v -0.812729 0.502301 -0.295238
v -0.531941 0.502302 -0.681712
v -0.262869 0.525738 -0.809012
v 0.029639 0.502302 -0.864184
v 0.483971 0.502302 -0.716565
v 0.688189 0.525736 -0.499997
v 0.831051 0.502299 -0.238853
v 0.077607 0.967950 0.238853
v 0.162456 0.850654 0.499995
v 0.232822 0.657519 0.716563
v 0.753442 0.657515 0.000000
v 0.525730 0.850652 0.000000
v 0.251147 0.967949 0.000000
v -0.203181 0.967950 0.147618
v -0.425323 0.850654 0.309011
v -0.609547 0.657519 0.442856
v -0.203181 0.967950 -0.147618
v -0.425323 0.850654 -0.309011
v -0.609547 0.657519 -0.442856
v 0.077607 0.967950 -0.238853
v 0.162456 0.850654 -0.499995
v 0.232822 0.657519 -0.716563
v 0.361800 0.894429 -0.262863
v 0.638194 0.723610 -0.262864
v 0.447209 0.723612 -0.525728
v -0.138197 0.894430 -0.425319
v -0.052790 0.723612 -0.688185
v -0.361804 0.723612 -0.587778
v -0.447210 0.894429 0.000000
v -0.670817 0.723611 -0.162457
v -0.670817 0.723611 0.162457
v -0.138197 0.894430 0.425319
v -0.361804 0.723612 0.587778
v -0.052790 0.723612 0.688185
v 0.361800 0.894429 0.262863
v 0.447209 0.723612 0.525728
v 0.638194 0.723610 0.262864
v 0.861804 0.276396 -0.425322
v 0.809019 0.000000 -0.587782
v 0.670821 0.276397 -0.688189
v -0.138199 0.276397 -0.951055
v -0.309016 -0.000000 -0.951057
v -0.447215 0.276397 -0.850649
v -0.947213 0.276396 -0.162458
v -1.000000 0.000001 0.000000
v -0.947213 0.276397 0.162458
v -0.447216 0.276397 0.850648
v -0.309017 -0.000001 0.951056
v -0.138199 0.276397 0.951055
v 0.670820 0.276396 0.688190
v 0.809019 -0.000002 0.587783
v 0.861804 0.276394 0.425323
v 0.309017 -0.000000 -0.951056
v 0.447216 -0.276398 -0.850648
v 0.138199 -0.276398 -0.951055
v -0.809018 -0.000000 -0.587783
v -0.670819 -0.276397 -0.688191
v -0.861803 -0.276396 -0.425324
v -0.809018 0.000000 0.587783
v -0.861803 -0.276396 0.425324
v -0.670819 -0.276397 0.688191
v 0.309017 0.000000 0.951056
v 0.138199 -0.276398 0.951055
v 0.447216 -0.276398 0.850648
v 1.000000 0.000000 0.000000
v 0.947213 -0.276396 0.162458
v 0.947213 -0.276396 -0.162458
v 0.361803 -0.723612 -0.587779
v 0.138197 -0.894429 -0.425321
v 0.052789 -0.723611 -0.688186
v -0.447211 -0.723612 -0.525727
v -0.361801 -0.894429 -0.262863
v -0.638195 -0.723609 -0.262863
v -0.638195 -0.723609 0.262864
v -0.361801 -0.894428 0.262864
v -0.447211 -0.723610 0.525729
v 0.670817 -0.723611 -0.162457
v 0.670818 -0.723610 0.162458
v 0.447211 -0.894428 0.000001
v 0.052790 -0.723612 0.688185
v 0.138199 -0.894429 0.425321
v 0.361805 -0.723611 0.587779
vt 1.6819 -0.5609
vt 1.8698 -0.7693
vt 1.9772 -0.5145
vt 0.1954 -0.2099
vt 0.1728 -0.4303
vt 0.3572 -0.2711
vt 1.7638 -0.3513
vt 1.5266 -0.3838
vt 1.3429 -0.5953
vt 0.2853 -0.0340
vt -0.4073 0.0869
vt -0.3039 -0.0487
vt -0.3069 0.2104
vt -0.8960 0.3820
vt -0.7938 0.2870
vt -0.8186 0.5414
vt 1.3595 0.3177
vt 1.4729 0.3130
vt 1.3984 0.5257
vt 0.8574 -0.0328
vt 0.9895 0.0010
vt 0.8861 0.1833
vt 0.1288 -0.0125
vt -0.4327 0.3037
vt -0.9471 0.5791
vt 1.2732 0.4592
vt 0.7526 0.0975
vt -0.0138 0.6823
vt 0.0997 0.6870
vt 0.0183 0.8959
vt -0.5159 1.0328
vt -0.3838 0.9990
vt -0.4545 1.2351
vt 1.5687 1.2099
vt 1.7305 1.2711
vt 1.5461 1.4303
vt 0.9660 0.9131
vt 1.0694 1.0487
vt 0.9097 1.1146
vt 0.4773 0.6180
vt 0.5795 0.7130
vt 0.4598 0.8374
vt 0.3905 1.3513
vt 0.6039 1.5145
vt 0.3086 1.5609
vt 0.4337 1.0956
vt 0.5905 1.2564
vt 0.5836 0.9713
vt 0.8065 1.3378
vt 0.7448 1.0762
vt 0.7070 0.8095
vt 0.8438 0.8801
vt 0.4965 1.7693
vt 0.9568 1.5790
vt 1.0390 1.3035
vt 1.4592 1.6863
vt 1.2744 1.4381
vt 1.2213 1.1707
vt 1.4057 1.2272
vt -0.0304 1.5953
vt 2.2158 1.6986
vt 1.8275 1.5099
vt -0.5308 1.6986
vt -0.3248 1.4538
vt -0.9191 1.5099
vt -0.6130 1.4181
vt -1.0161 1.2711
vt -0.8108 1.2588
vt -0.6332 1.1608
vt 0.1533 1.3838
vt -0.0796 1.3403
vt -0.2690 1.1868
vt 0.0683 1.1447
vt -0.1005 1.0564
vt -0.2400 0.9161
vt -0.1121 0.7988
vt 0.2557 1.1592
vt 0.1625 0.9170
vt 0.3218 0.8951
vt 0.2335 0.6768
vt 0.3662 0.6507
vt 0.5547 0.4586
vt 0.6482 0.2725
vt 0.6772 0.5411
vt 0.7832 0.3493
vt 0.8137 0.6281
vt 0.9139 0.4397
vt 0.9406 0.6963
vt 1.0664 0.7896
vt 1.1727 0.6279
vt 1.1932 0.8998
vt 1.3064 0.7091
vt 1.3494 0.9834
vt 1.4455 0.7708
vt 1.5021 1.0125
vt 1.6586 1.0340
vt 1.7360 0.8102
vt 1.8172 1.0450
vt -0.8657 0.7829
vt -1.0106 0.8102
vt -0.9294 1.0450
vt -0.7595 0.9950
vt -0.7251 0.7275
vt -0.6207 0.9025
vt -0.4872 0.8167
vt -0.4594 0.5603
vt -0.3561 0.7454
vt -0.3306 0.4646
vt -0.2193 0.6442
vt -0.2006 0.3721
vt -0.1001 0.5408
vt 0.0251 0.4743
vt 0.0722 0.2292
vt 0.1540 0.4522
vt 0.2163 0.1940
vt 0.2966 0.4325
vt 0.3627 0.1898
vt 0.4262 0.4209
vt 1.0427 0.5354
vt 1.0172 0.2546
vt 1.1540 0.3558
vt 1.1333 0.0839
vt 1.2612 0.2012
vt 1.5896 0.8060
vt 1.5273 0.5478
vt 1.6699 0.5675
vt 1.7995 0.5791
vt 1.6068 0.3232
vt 1.7395 0.3493
vt -1.0071 0.3493
vt -0.5901 0.6507
vt -0.6961 0.4589
vt -0.5596 0.3719
vt -0.6663 0.1905
vt -0.5295 0.1199
vt -0.0669 0.2909
vt -0.1801 0.1002
vt -0.0239 0.0166
vt -0.1520 -0.1707
vt 0.0324 -0.2272
vt 0.5076 0.2171
vt 0.4439 -0.0450
vt 0.6138 0.0050
vt 0.5625 -0.2588
vt 0.7401 -0.1608
vt 0.9188 -0.2351
vt 1.0485 -0.4538
vt 1.1043 -0.1868
vt 1.2937 -0.3403
vt 1.2728 -0.0564
vt 1.4416 -0.1447
vt 1.3916 0.1041
vt 1.5358 0.0830
vt 1.6290 -0.1592
vt 1.6951 0.1049
vt 1.8070 -0.0956
vt 1.8331 0.1626
vt -0.9135 0.1626
vt -0.9396 -0.0956
vt -0.7897 0.0287
vt -0.9828 -0.3513
vt -0.7828 -0.2564
vt -0.6285 -0.0762
vt -0.7694 -0.5145
vt -0.5668 -0.3378
vt -0.4636 -0.1146
vt 0.7603 -0.4181
vt 0.4542 -0.5099
vt 0.8425 -0.6986
vt 0.0859 -0.6863
vt -0.3343 -0.3035
vt -0.4165 -0.5790
vt -0.0989 -0.4381
vt -0.8768 -0.7693
vn 0.0000 -1.0000 0.0000
vn 0.2109 -0.9654 0.1533
vn -0.0806 -0.9654 0.2480
vn 0.7236 -0.4472 0.5257
vn 0.6042 -0.6650 0.4390
vn 0.8152 -0.5038 0.2857
vn -0.2608 -0.9654 0.0000
vn -0.0806 -0.9654 -0.2480
vn 0.2109 -0.9654 -0.1533
vn 0.8650 -0.2430 0.4390
vn -0.2764 -0.4472 0.8506
vn -0.0198 -0.5038 0.8636
vn -0.1502 -0.2430 0.9583
vn -0.8944 -0.4472 0.0000
vn -0.8274 -0.5038 0.2480
vn -0.9578 -0.2430 0.1533
vn -0.2764 -0.4472 -0.8506
vn -0.4915 -0.5038 -0.7103
vn -0.4417 -0.2430 -0.8636
vn 0.7236 -0.4472 -0.5257
vn 0.5236 -0.5038 -0.6870
vn 0.6848 -0.2430 -0.6870
vn 0.6848 -0.2430 0.6870
vn -0.4417 -0.2430 0.8636
vn -0.9578 -0.2430 -0.1533
vn -0.1502 -0.2430 -0.9583
vn 0.8650 -0.2430 -0.4390
vn 0.2764 0.4472 0.8506
vn 0.4915 0.5038 0.7103
vn 0.2308 0.6650 0.7103
vn -0.7236 0.4472 0.5257
vn -0.5236 0.5038 0.6870
vn -0.6042 0.6650 0.4390
vn -0.7236 0.4472 -0.5257
vn -0.8152 0.5038 -0.2857
vn -0.6042 0.6650 -0.4390
vn 0.2764 0.4472 -0.8506
vn 0.0198 0.5038 -0.8636
vn 0.2308 0.6650 -0.7103
vn 0.8944 0.4472 0.0000
vn 0.8274 0.5038 -0.2480
vn 0.7468 0.6650 0.0000
vn 0.2608 0.9654 0.0000
vn 0.0806 0.9654 -0.2480
vn 0.0000 1.0000 0.0000
vn 0.5257 0.8506 0.0000
vn 0.3682 0.8904 -0.2675
vn 0.6317 0.7275 -0.2675
vn 0.1625 0.8506 -0.5000
vn 0.4496 0.7275 -0.5181
vn 0.6882 0.5257 -0.5000
vn 0.4915 0.5038 -0.7103
vn -0.2109 0.9654 -0.1533
vn -0.1406 0.8904 -0.4328
vn -0.0592 0.7275 -0.6835
vn -0.4253 0.8506 -0.3090
vn -0.3538 0.7275 -0.5877
vn -0.2629 0.5257 -0.8090
vn -0.5236 0.5038 -0.6870
vn -0.2109 0.9654 0.1533
vn -0.4551 0.8904 0.0000
vn -0.6683 0.7275 -0.1549
vn -0.4253 0.8506 0.3090
vn -0.6683 0.7275 0.1549
vn -0.8506 0.5257 0.0000
vn -0.8152 0.5038 0.2857
vn 0.0806 0.9654 0.2480
vn -0.1406 0.8904 0.4328
vn -0.3538 0.7275 0.5877
vn 0.1625 0.8506 0.5000
vn -0.0592 0.7275 0.6835
vn -0.2629 0.5257 0.8090
vn 0.0198 0.5038 0.8636
vn 0.3682 0.8904 0.2675
vn 0.4496 0.7275 0.5181
vn 0.6317 0.7275 0.2675
vn 0.6882 0.5257 0.5000
vn 0.8274 0.5038 0.2480
vn 0.9578 0.2430 -0.1533
vn 0.9510 0.0000 -0.3090
vn 0.8593 0.2724 -0.4328
vn 0.8090 0.0089 -0.5878
vn 0.6772 0.2724 -0.6835
vn 0.5878 0.0000 -0.8090
vn 0.4417 0.2430 -0.8636
vn 0.1502 0.2430 -0.9583
vn 0.0000 0.0000 -1.0000
vn -0.1461 0.2724 -0.9510
vn -0.3090 0.0089 -0.9510
vn -0.4407 0.2724 -0.8553
vn -0.5878 0.0000 -0.8090
vn -0.6848 0.2430 -0.6870
vn -0.8650 0.2430 -0.4390
vn -0.9510 0.0000 -0.3090
vn -0.9496 0.2724 -0.1549
vn -0.9999 0.0089 0.0000
vn -0.9496 0.2724 0.1549
vn -0.9510 0.0000 0.3090
vn -0.8650 0.2430 0.4390
vn -0.6848 0.2430 0.6870
vn -0.5878 0.0000 0.8090
vn -0.4407 0.2724 0.8553
vn -0.3090 0.0089 0.9510
vn -0.1461 0.2724 0.9510
vn 0.0000 0.0000 1.0000
vn 0.1502 0.2430 0.9583
vn 0.4417 0.2430 0.8636
vn 0.5878 0.0000 0.8090
vn 0.6772 0.2724 0.6835
vn 0.8090 0.0089 0.5878
vn 0.8593 0.2724 0.4328
vn 0.9510 0.0000 0.3090
vn 0.9578 0.2430 0.1533
vn 0.3090 -0.0089 -0.9510
vn 0.4407 -0.2724 -0.8553
vn 0.1461 -0.2724 -0.9510
vn 0.2629 -0.5257 -0.8090
vn -0.0198 -0.5038 -0.8636
vn -0.8090 -0.0089 -0.5878
vn -0.6772 -0.2724 -0.6835
vn -0.8593 -0.2724 -0.4328
vn -0.6882 -0.5257 -0.5000
vn -0.8274 -0.5038 -0.2480
vn -0.8090 -0.0089 0.5878
vn -0.8593 -0.2724 0.4328
vn -0.6772 -0.2724 0.6835
vn -0.6882 -0.5257 0.5000
vn -0.4915 -0.5038 0.7103
vn 0.3090 -0.0089 0.9510
vn 0.1461 -0.2724 0.9510
vn 0.4407 -0.2724 0.8553
vn 0.2629 -0.5257 0.8090
vn 0.5236 -0.5038 0.6870
vn 0.9999 -0.0089 0.0000
vn 0.9496 -0.2724 0.1549
vn 0.9496 -0.2724 -0.1549
vn 0.8506 -0.5257 0.0000
vn 0.8152 -0.5038 -0.2857
vn 0.6042 -0.6650 -0.4390
vn 0.4253 -0.8506 -0.3090
vn 0.3538 -0.7275 -0.5878
vn 0.1406 -0.8904 -0.4328
vn 0.0592 -0.7275 -0.6835
vn -0.1625 -0.8506 -0.5000
vn -0.2308 -0.6650 -0.7103
vn -0.4496 -0.7275 -0.5181
vn -0.3682 -0.8904 -0.2675
vn -0.6317 -0.7275 -0.2675
vn -0.5257 -0.8506 0.0000
vn -0.7468 -0.6650 0.0000
vn -0.6317 -0.7275 0.2675
vn -0.3682 -0.8904 0.2675
vn -0.4496 -0.7275 0.5181
vn -0.1625 -0.8506 0.5000
vn -0.2308 -0.6650 0.7103
vn 0.6683 -0.7275 -0.1549
vn 0.6683 -0.7275 0.1549
vn 0.4551 -0.8904 0.0000
vn 0.4253 -0.8506 0.3090
vn 0.0592 -0.7275 0.6835
vn 0.1406 -0.8904 0.4328
vn 0.3538 -0.7275 0.5878
usemtl None
s 1
f 1/1/1 16/2/2 15/3/3
f 2/4/4 18/5/5 24/6/6
f 1/1/1 15/3/3 30/7/7
f 1/1/1 30/7/7 36/8/8
f 1/1/1 36/8/8 25/9/9
f 2/4/4 24/6/6 45/10/10
f 3/11/11 21/12/12 51/13/13
f 4/14/14 33/15/15 57/16/16
f 5/17/17 39/18/18 63/19/19
f 6/20/20 42/21/21 69/22/22
f 2/4/4 45/10/10 52/23/23
f 3/11/11 51/13/13 58/24/24
f 4/14/14 57/16/16 64/25/25
f 5/17/17 63/19/19 70/26/26
f 6/20/20 69/22/22 46/27/27
f 7/28/28 75/29/29 90/30/30
f 8/31/31 78/32/32 96/33/33
f 9/34/34 81/35/35 99/36/36
f 10/37/37 84/38/38 102/39/39
f 11/40/40 87/41/41 91/42/42
f 93/43/43 100/44/44 12/45/45
f 92/46/46 103/47/47 93/43/43
f 91/42/42 104/48/48 92/46/46
f 93/43/43 103/47/47 100/44/44
f 103/47/47 101/49/49 100/44/44
f 92/46/46 104/48/48 103/47/47
f 104/48/48 105/50/50 103/47/47
f 103/47/47 105/50/50 101/49/49
f 105/50/50 102/39/39 101/49/49
f 91/42/42 87/41/41 104/48/48
f 87/41/41 86/51/51 104/48/48
f 104/48/48 86/51/51 105/50/50
f 86/51/51 85/52/52 105/50/50
f 105/50/50 85/52/52 102/39/39
f 85/52/52 10/37/37 102/39/39
f 100/44/44 97/53/53 12/45/45
f 101/49/49 106/54/54 100/44/44
f 102/39/39 107/55/55 101/49/49
f 100/44/44 106/54/54 97/53/53
f 106/54/54 98/56/56 97/53/53
f 101/49/49 107/55/55 106/54/54
f 107/55/55 108/57/57 106/54/54
f 106/54/54 108/57/57 98/56/56
f 108/57/57 99/36/36 98/56/56
f 102/39/39 84/38/38 107/55/55
f 84/38/38 83/58/58 107/55/55
f 107/55/55 83/58/58 108/57/57
f 83/58/58 82/59/59 108/57/57
f 108/57/57 82/59/59 99/36/36
f 82/59/59 9/34/34 99/36/36
f 97/53/53 94/60/60 12/45/45
f 98/56/56 109/61/61 97/53/53
f 99/36/36 110/62/62 98/56/56
f 97/53/53 109/63/61 94/60/60
f 109/63/61 95/64/63 94/60/60
f 98/56/56 110/62/62 109/61/61
f 110/65/62 111/66/64 109/63/61
f 109/63/61 111/66/64 95/64/63
f 111/66/64 96/33/33 95/64/63
f 99/36/36 81/35/35 110/62/62
f 81/67/35 80/68/65 110/65/62
f 110/65/62 80/68/65 111/66/64
f 80/68/65 79/69/66 111/66/64
f 111/66/64 79/69/66 96/33/33
f 79/69/66 8/31/31 96/33/33
f 94/60/60 88/70/67 12/45/45
f 95/64/63 112/71/68 94/60/60
f 96/33/33 113/72/69 95/64/63
f 94/60/60 112/71/68 88/70/67
f 112/71/68 89/73/70 88/70/67
f 95/64/63 113/72/69 112/71/68
f 113/72/69 114/74/71 112/71/68
f 112/71/68 114/74/71 89/73/70
f 114/74/71 90/30/30 89/73/70
f 96/33/33 78/32/32 113/72/69
f 78/32/32 77/75/72 113/72/69
f 113/72/69 77/75/72 114/74/71
f 77/75/72 76/76/73 114/74/71
f 114/74/71 76/76/73 90/30/30
f 76/76/73 7/28/28 90/30/30
f 88/70/67 93/43/43 12/45/45
f 89/73/70 115/77/74 88/70/67
f 90/30/30 116/78/75 89/73/70
f 88/70/67 115/77/74 93/43/43
f 115/77/74 92/46/46 93/43/43
f 89/73/70 116/78/75 115/77/74
f 116/78/75 117/79/76 115/77/74
f 115/77/74 117/79/76 92/46/46
f 117/79/76 91/42/42 92/46/46
f 90/30/30 75/29/29 116/78/75
f 75/29/29 74/80/77 116/78/75
f 116/78/75 74/80/77 117/79/76
f 74/80/77 73/81/78 117/79/76
f 117/79/76 73/81/78 91/42/42
f 73/81/78 11/40/40 91/42/42
f 48/82/79 87/41/41 11/40/40
f 47/83/80 118/84/81 48/82/79
f 46/27/27 119/85/82 47/83/80
f 48/82/79 118/84/81 87/41/41
f 118/84/81 86/51/51 87/41/41
f 47/83/80 119/85/82 118/84/81
f 119/85/82 120/86/83 118/84/81
f 118/84/81 120/86/83 86/51/51
f 120/86/83 85/52/52 86/51/51
f 46/27/27 69/22/22 119/85/82
f 69/22/22 68/87/84 119/85/82
f 119/85/82 68/87/84 120/86/83
f 68/87/84 67/88/85 120/86/83
f 120/86/83 67/88/85 85/52/52
f 67/88/85 10/37/37 85/52/52
f 72/89/86 84/38/38 10/37/37
f 71/90/87 121/91/88 72/89/86
f 70/26/26 122/92/89 71/90/87
f 72/89/86 121/91/88 84/38/38
f 121/91/88 83/58/58 84/38/38
f 71/90/87 122/92/89 121/91/88
f 122/92/89 123/93/90 121/91/88
f 121/91/88 123/93/90 83/58/58
f 123/93/90 82/59/59 83/58/58
f 70/26/26 63/19/19 122/92/89
f 63/19/19 62/94/91 122/92/89
f 122/92/89 62/94/91 123/93/90
f 62/94/91 61/95/92 123/93/90
f 123/93/90 61/95/92 82/59/59
f 61/95/92 9/34/34 82/59/59
f 66/96/93 81/35/35 9/34/34
f 65/97/94 124/98/95 66/96/93
f 64/25/25 125/99/96 65/100/94
f 66/96/93 124/98/95 81/35/35
f 124/101/95 80/68/65 81/67/35
f 65/100/94 125/99/96 124/101/95
f 125/99/96 126/102/97 124/101/95
f 124/101/95 126/102/97 80/68/65
f 126/102/97 79/69/66 80/68/65
f 64/25/25 57/16/16 125/99/96
f 57/16/16 56/103/98 125/99/96
f 125/99/96 56/103/98 126/102/97
f 56/103/98 55/104/99 126/102/97
f 126/102/97 55/104/99 79/69/66
f 55/104/99 8/31/31 79/69/66
f 60/105/100 78/32/32 8/31/31
f 59/106/101 127/107/102 60/105/100
f 58/24/24 128/108/103 59/106/101
f 60/105/100 127/107/102 78/32/32
f 127/107/102 77/75/72 78/32/32
f 59/106/101 128/108/103 127/107/102
f 128/108/103 129/109/104 127/107/102
f 127/107/102 129/109/104 77/75/72
f 129/109/104 76/76/73 77/75/72
f 58/24/24 51/13/13 128/108/103
f 51/13/13 50/110/105 128/108/103
f 128/108/103 50/110/105 129/109/104
f 50/110/105 49/111/106 129/109/104
f 129/109/104 49/111/106 76/76/73
f 49/111/106 7/28/28 76/76/73
f 54/112/107 75/29/29 7/28/28
f 53/113/108 130/114/109 54/112/107
f 52/23/23 131/115/110 53/113/108
f 54/112/107 130/114/109 75/29/29
f 130/114/109 74/80/77 75/29/29
f 53/113/108 131/115/110 130/114/109
f 131/115/110 132/116/111 130/114/109
f 130/114/109 132/116/111 74/80/77
f 132/116/111 73/81/78 74/80/77
f 52/23/23 45/10/10 131/115/110
f 45/10/10 44/117/112 131/115/110
f 131/115/110 44/117/112 132/116/111
f 44/117/112 43/118/113 132/116/111
f 132/116/111 43/118/113 73/81/78
f 43/118/113 11/40/40 73/81/78
f 67/88/85 72/89/86 10/37/37
f 68/87/84 133/119/114 67/88/85
f 69/22/22 134/120/115 68/87/84
f 67/88/85 133/119/114 72/89/86
f 133/119/114 71/90/87 72/89/86
f 68/87/84 134/120/115 133/119/114
f 134/120/115 135/121/116 133/119/114
f 133/119/114 135/121/116 71/90/87
f 135/121/116 70/26/26 71/90/87
f 69/22/22 42/21/21 134/120/115
f 42/21/21 41/122/117 134/120/115
f 134/120/115 41/122/117 135/121/116
f 41/122/117 40/123/118 135/121/116
f 135/121/116 40/123/118 70/26/26
f 40/123/118 5/17/17 70/26/26
f 61/95/92 66/96/93 9/34/34
f 62/94/91 136/124/119 61/95/92
f 63/19/19 137/125/120 62/94/91
f 61/95/92 136/124/119 66/96/93
f 136/124/119 65/97/94 66/96/93
f 62/94/91 137/125/120 136/124/119
f 137/125/120 138/126/121 136/124/119
f 136/124/119 138/126/121 65/97/94
f 138/126/121 64/127/25 65/97/94
f 63/19/19 39/18/18 137/125/120
f 39/18/18 38/128/122 137/125/120
f 137/125/120 38/128/122 138/126/121
f 38/128/122 37/129/123 138/126/121
f 138/126/121 37/129/123 64/127/25
f 37/130/123 4/14/14 64/25/25
f 55/104/99 60/105/100 8/31/31
f 56/103/98 139/131/124 55/104/99
f 57/16/16 140/132/125 56/103/98
f 55/104/99 139/131/124 60/105/100
f 139/131/124 59/106/101 60/105/100
f 56/103/98 140/132/125 139/131/124
f 140/132/125 141/133/126 139/131/124
f 139/131/124 141/133/126 59/106/101
f 141/133/126 58/24/24 59/106/101
f 57/16/16 33/15/15 140/132/125
f 33/15/15 32/134/127 140/132/125
f 140/132/125 32/134/127 141/133/126
f 32/134/127 31/135/128 141/133/126
f 141/133/126 31/135/128 58/24/24
f 31/135/128 3/11/11 58/24/24
f 49/111/106 54/112/107 7/28/28
f 50/110/105 142/136/129 49/111/106
f 51/13/13 143/137/130 50/110/105
f 49/111/106 142/136/129 54/112/107
f 142/136/129 53/113/108 54/112/107
f 50/110/105 143/137/130 142/136/129
f 143/137/130 144/138/131 142/136/129
f 142/136/129 144/138/131 53/113/108
f 144/138/131 52/23/23 53/113/108
f 51/13/13 21/12/12 143/137/130
f 21/12/12 20/139/132 143/137/130
f 143/137/130 20/139/132 144/138/131
f 20/139/132 19/140/133 144/138/131
f 144/138/131 19/140/133 52/23/23
f 19/140/133 2/4/4 52/23/23
f 43/118/113 48/82/79 11/40/40
f 44/117/112 145/141/134 43/118/113
f 45/10/10 146/142/135 44/117/112
f 43/118/113 145/141/134 48/82/79
f 145/141/134 47/83/80 48/82/79
f 44/117/112 146/142/135 145/141/134
f 146/142/135 147/143/136 145/141/134
f 145/141/134 147/143/136 47/83/80
f 147/143/136 46/27/27 47/83/80
f 45/10/10 24/6/6 146/142/135
f 24/6/6 23/144/137 146/142/135
f 146/142/135 23/144/137 147/143/136
f 23/144/137 22/145/138 147/143/136
f 147/143/136 22/145/138 46/27/27
f 22/145/138 6/20/20 46/27/27
f 27/146/139 42/21/21 6/20/20
f 26/147/140 148/148/141 27/146/139
f 25/9/9 149/149/142 26/147/140
f 27/146/139 148/148/141 42/21/21
f 148/148/141 41/122/117 42/21/21
f 26/147/140 149/149/142 148/148/141
f 149/149/142 150/150/143 148/148/141
f 148/148/141 150/150/143 41/122/117
f 150/150/143 40/123/118 41/122/117
f 25/9/9 36/8/8 149/149/142
f 36/8/8 35/151/144 149/149/142
f 149/149/142 35/151/144 150/150/143
f 35/151/144 34/152/145 150/150/143
f 150/150/143 34/152/145 40/123/118
f 34/152/145 5/17/17 40/123/118
f 34/152/145 39/18/18 5/17/17
f 35/151/144 151/153/146 34/152/145
f 36/8/8 152/154/147 35/151/144
f 34/152/145 151/153/146 39/18/18
f 151/153/146 38/128/122 39/18/18
f 35/151/144 152/154/147 151/153/146
f 152/154/147 153/155/148 151/153/146
f 151/153/146 153/155/148 38/128/122
f 153/155/148 37/129/123 38/128/122
f 36/8/8 30/7/7 152/154/147
f 30/7/7 29/156/149 152/154/147
f 152/154/147 29/156/149 153/155/148
f 29/156/149 28/157/150 153/155/148
f 153/155/148 28/157/150 37/129/123
f 28/158/150 4/14/14 37/130/123
f 28/158/150 33/15/15 4/14/14
f 29/159/149 154/160/151 28/158/150
f 30/161/7 155/162/152 29/159/149
f 28/158/150 154/160/151 33/15/15
f 154/160/151 32/134/127 33/15/15
f 29/159/149 155/162/152 154/160/151
f 155/162/152 156/163/153 154/160/151
f 154/160/151 156/163/153 32/134/127
f 156/163/153 31/135/128 32/134/127
f 30/161/7 15/164/3 155/162/152
f 15/164/3 14/165/154 155/162/152
f 155/162/152 14/165/154 156/163/153
f 14/165/154 13/166/155 156/163/153
f 156/163/153 13/166/155 31/135/128
f 13/166/155 3/11/11 31/135/128
f 22/145/138 27/146/139 6/20/20
f 23/144/137 157/167/156 22/145/138
f 24/6/6 158/168/157 23/144/137
f 22/145/138 157/167/156 27/146/139
f 157/167/156 26/147/140 27/146/139
f 23/144/137 158/168/157 157/167/156
f 158/168/157 159/169/158 157/167/156
f 157/167/156 159/169/158 26/147/140
f 159/169/158 25/9/9 26/147/140
f 24/6/6 18/5/5 158/168/157
f 18/5/5 17/170/159 158/168/157
f 158/168/157 17/170/159 159/169/158
f 17/170/159 16/2/2 159/169/158
f 159/169/158 16/2/2 25/9/9
f 16/2/2 1/1/1 25/9/9
f 13/166/155 21/12/12 3/11/11
f 14/165/154 160/171/160 13/166/155
f 15/164/3 161/172/161 14/165/154
f 13/166/155 160/171/160 21/12/12
f 160/171/160 20/139/132 21/12/12
f 14/165/154 161/172/161 160/171/160
f 161/172/161 162/173/162 160/171/160
f 160/171/160 162/173/162 20/139/132
f 162/173/162 19/140/133 20/139/132
f 15/164/3 16/174/2 161/172/161
f 16/174/2 17/170/159 161/172/161
f 161/172/161 17/170/159 162/173/162
f 17/170/159 18/5/5 162/173/162
f 162/173/162 18/5/5 19/140/133
f 18/5/5 2/4/4 19/140/133
